<?xml version="1.0" encoding="utf-8"?>
<!-- Generator: Adobe Illustrator 15.0.2, SVG Export Plug-In . SVG Version: 6.00 Build 0)  -->
<!DOCTYPE svg PUBLIC "-//W3C//DTD SVG 1.1//EN" "http://www.w3.org/Graphics/SVG/1.1/DTD/svg11.dtd">
<svg version="1.1" id="Layer_1" xmlns="http://www.w3.org/2000/svg" xmlns:xlink="http://www.w3.org/1999/xlink" x="0px" y="0px"
	 width="100px" height="100px" viewBox="0 0 100 100" enable-background="new 0 0 100 100" xml:space="preserve">
<path fill="#E0E0E0" d="M88.077,0H12.16C5.576,0,0.239,5.337,0.239,11.913v46.169C0.239,64.67,5.576,70,12.16,70h10.215v20.158
	c0,2.479,2.016,4.494,4.5,4.494c1.27,0,2.418-0.523,3.233-1.365h0.006L53.334,70h34.744C94.66,70,100,64.67,100,58.082V11.913
	C99.998,5.337,94.659,0,88.077,0z M27.563,40.806c-3.299,0-5.976-2.677-5.976-5.976c0-3.299,2.677-5.976,5.976-5.976
	c3.299,0,5.976,2.677,5.976,5.976C33.54,38.128,30.862,40.806,27.563,40.806z M50.836,40.806c-3.3,0-5.974-2.677-5.974-5.976
	c0-3.299,2.674-5.976,5.974-5.976c3.299,0,5.973,2.677,5.973,5.976C56.809,38.128,54.135,40.806,50.836,40.806z M74.443,40.806
	c-3.299,0-5.977-2.677-5.977-5.976c0-3.299,2.678-5.976,5.977-5.976s5.977,2.677,5.977,5.976
	C80.42,38.128,77.742,40.806,74.443,40.806z"/>
</svg>
